<?xml version="1.0" encoding="UTF-8" standalone="no"?>
<svg viewBox="0 0 50 50"
 xmlns="http://www.w3.org/2000/svg" xmlns:xlink="http://www.w3.org/1999/xlink" version="1.2" baseProfile="tiny">
<title>Qt SVG Document</title>
<desc>Generated with Qt</desc>
<defs>
</defs>
<g fill="none" stroke="black" stroke-width="1" fill-rule="evenodd" stroke-linecap="square" stroke-linejoin="bevel" >

<g fill="#000000" fill-opacity="1" stroke="none" transform="matrix(2.27273,0,0,2.27273,0,-125)"
font-family="Noto Sans" font-size="10" font-weight="400" font-style="normal" 
>
<path vector-effect="none" fill-rule="evenodd" d="M0,64 C0,59.0294 3.13401,55 7,55 L15,55 C18.866,55 22,59.0294 22,64 L22,68 C22,72.9706 18.866,77 15,77 L7,77 C3.13401,77 0,72.9706 0,68 L0,64"/>
</g>

<g fill="#000000" fill-opacity="1" stroke="none" transform="matrix(2.27273,0,0,2.27273,0,-125)"
font-family="Noto Sans" font-size="10" font-weight="400" font-style="normal" 
opacity="0.2" >
<path vector-effect="none" fill-rule="evenodd" d="M0,64 C0,59.0294 3.13401,55 7,55 L15,55 C18.866,55 22,59.0294 22,64 L22,68 C22,72.9706 18.866,77 15,77 L7,77 C3.13401,77 0,72.9706 0,68 L0,64"/>
</g>

<g fill="#000000" fill-opacity="1" stroke="none" transform="matrix(2.27273,0,0,2.27273,0,-125)"
font-family="Noto Sans" font-size="10" font-weight="400" font-style="normal" 
>
<rect x="0" y="55" width="9" height="9"/>
</g>

<g fill="#000000" fill-opacity="1" stroke="none" transform="matrix(2.27273,0,0,2.27273,0,-125)"
font-family="Noto Sans" font-size="10" font-weight="400" font-style="normal" 
>
<rect x="0" y="68" width="9" height="9"/>
</g>

<g fill="#000000" fill-opacity="1" stroke="none" transform="matrix(2.27273,0,0,2.27273,0,-125)"
font-family="Noto Sans" font-size="10" font-weight="400" font-style="normal" 
>
<rect x="13" y="68" width="9" height="9"/>
</g>

<g fill="#000000" fill-opacity="1" stroke="none" transform="matrix(2.27273,0,0,2.27273,0,-125)"
font-family="Noto Sans" font-size="10" font-weight="400" font-style="normal" 
opacity="0.2" >
<rect x="0" y="68" width="9" height="9"/>
</g>

<g fill="#000000" fill-opacity="1" stroke="none" transform="matrix(2.27273,0,0,2.27273,0,-125)"
font-family="Noto Sans" font-size="10" font-weight="400" font-style="normal" 
opacity="0.2" >
<rect x="13" y="68" width="9" height="9"/>
</g>

<g fill="#ffffff" fill-opacity="1" stroke="none" transform="matrix(1.13636,1.96824,-1.96824,1.13636,3.41008,-11.3636)"
font-family="Noto Sans" font-size="10" font-weight="400" font-style="normal" 
>
<path vector-effect="none" fill-rule="evenodd" d="M14.1369,-0.209132 C14.1369,-0.485275 14.3608,-0.709132 14.6369,-0.709132 L22.6369,-0.709132 C22.913,-0.709132 23.1369,-0.485275 23.1369,-0.209132 C23.1369,0.0670099 22.913,0.290868 22.6369,0.290868 L14.6369,0.290868 C14.3608,0.290868 14.1369,0.0670099 14.1369,-0.209132 "/>
</g>

<g fill="#ffffff" fill-opacity="1" stroke="none" transform="matrix(-1.13636,1.96824,1.96824,1.13636,3.41008,-11.3636)"
font-family="Noto Sans" font-size="10" font-weight="400" font-style="normal" 
>
<path vector-effect="none" fill-rule="evenodd" d="M4.63734,16.2446 C4.63734,15.9685 4.86119,15.7446 5.13734,15.7446 L13.1373,15.7446 C13.4135,15.7446 13.6373,15.9685 13.6373,16.2446 C13.6373,16.5207 13.4135,16.7446 13.1373,16.7446 L5.13734,16.7446 C4.86119,16.7446 4.63734,16.5207 4.63734,16.2446 "/>
</g>

<g fill="#000000" fill-opacity="1" stroke="none" transform="matrix(2.27273,0,0,2.27273,0,-125)"
font-family="Noto Sans" font-size="10" font-weight="400" font-style="normal" 
opacity="0.2" >
<rect x="0" y="55" width="9" height="9"/>
</g>

<g fill="none" stroke="#000000" stroke-opacity="1" stroke-width="1" stroke-linecap="square" stroke-linejoin="bevel" transform="matrix(1,0,0,1,0,0)"
font-family="Noto Sans" font-size="10" font-weight="400" font-style="normal" 
>
</g>
</g>
</svg>
