<?xml version="1.0" encoding="UTF-8" standalone="no"?>
<svg viewBox="0 0 50 50"
 xmlns="http://www.w3.org/2000/svg" xmlns:xlink="http://www.w3.org/1999/xlink" version="1.2" baseProfile="tiny">
<title>Qt SVG Document</title>
<desc>Generated with Qt</desc>
<defs>
</defs>
<g fill="none" stroke="black" stroke-width="1" fill-rule="evenodd" stroke-linecap="square" stroke-linejoin="bevel" >

<g fill="#000000" fill-opacity="1" stroke="none" transform="matrix(2.27273,0,0,2.27273,0,-129.545)"
font-family="Noto Sans" font-size="10" font-weight="400" font-style="normal" 
>
<rect x="0" y="57" width="22" height="22"/>
</g>

<g fill="#ffffff" fill-opacity="1" stroke="none" transform="matrix(2.27273,0,0,2.27273,0,0)"
font-family="Noto Sans" font-size="10" font-weight="400" font-style="normal" 
>
<path vector-effect="none" fill-rule="nonzero" d="M8,9 C7.446,9 7,9.446 7,10 L7,14 C7,14.554 7.446,15 8,15 L11,15 C11.554,15 12,14.554 12,14 L12,10 C12,9.446 11.554,9 11,9 L8,9 M7.98242,9.63672 L11.0176,9.63672 C11.2208,9.63672 11.3828,9.8007 11.3828,10.0039 L11.3828,13.9961 C11.3828,14.1993 11.2208,14.3633 11.0176,14.3633 L7.98242,14.3633 C7.77921,14.3633 7.61719,14.1993 7.61719,13.9961 L7.61719,10.0039 C7.61719,9.8007 7.77921,9.63672 7.98242,9.63672 "/>
</g>

<g fill="#ffffff" fill-opacity="1" stroke="none" transform="matrix(2.27273,0,0,2.27273,31.8182,0)"
font-family="Noto Sans" font-size="10" font-weight="400" font-style="normal" 
>
<path vector-effect="none" fill-rule="evenodd" d="M-5,7.31916 C-5,7.14289 -4.85711,7 -4.68084,7 L-0.680933,7 C-0.504668,7 -0.361777,7.14289 -0.361777,7.31916 L-0.361777,7.31916 C-0.361777,7.49542 -0.504668,7.63831 -0.680933,7.63831 L-4.68084,7.63831 C-4.85711,7.63831 -5,7.49542 -5,7.31916 L-5,7.31916"/>
</g>

<g fill="#ffffff" fill-opacity="1" stroke="none" transform="matrix(0,-2.27273,2.27273,0,31.8182,0)"
font-family="Noto Sans" font-size="10" font-weight="400" font-style="normal" 
>
<path vector-effect="none" fill-rule="evenodd" d="M-13.3617,-0.680889 C-13.3617,-0.857129 -13.2188,-1 -13.0426,-1 L-7.31911,-1 C-7.14287,-1 -7,-0.857129 -7,-0.680889 C-7,-0.504648 -7.14287,-0.361777 -7.31911,-0.361777 L-13.0426,-0.361777 C-13.2188,-0.361777 -13.3617,-0.504648 -13.3617,-0.680889 "/>
</g>

<g fill="none" stroke="#000000" stroke-opacity="1" stroke-width="1" stroke-linecap="square" stroke-linejoin="bevel" transform="matrix(1,0,0,1,0,0)"
font-family="Noto Sans" font-size="10" font-weight="400" font-style="normal" 
>
</g>
</g>
</svg>
